:SAMPLES-PER-SECOND 30
:FULLY-SPECIFIED
:DEGREES
74
root  -49.2204 38.6225 14.1449 -179.361 -37.265 175.648
RightUpLeg  -12.3 14.8221 -4.54992
RightLeg  40.618 -1.14347 -1.34345
RightFoot  -22.5765 -0.318885 -1.7083
RightToes  0.000482159 0.542163 -0.142577
Spine  28.7244 -1.77418 3.40089
Spine1  9.36295 -2.34597 4.54431
HEad  5.75028 -3.3746 3.61709
LeftShoulder1  9.78976 -15.0688 -45.9705
LeftArm  -7.69902 -9.37982 -21.0967
LeftForeArm  24.1311 -9.01004 -7.31144
LeftHand  -0.25398 0.0180481 5.50724
RightShoulder  6.1348 12.1815 33.159
RightArm  16.4024 17.76 40.9052
RightForeArm  -4.74234 28.2965 6.36829
RightHand  -1.39396 3.88724 -17.6366
LeftUpLeg  -20.8684 9.56858 13.6199
LeftLeg  4.84855 9.5823 0.166016
LeftFoot  -4.83213 0.35483 -5.75888
LeftToes  1.06248e-005 4.65855e-005 -8.18498e-006
75
root  -50.7667 38.2873 14.6266 -179.04 -32.1498 176.169
RightUpLeg  -15.0455 15.5237 -7.32094
RightLeg  43.8021 0.341989 0.059911
RightFoot  -22.8043 -0.10152 0.543858
RightToes  0.000482159 0.542163 -0.142577
Spine  31.0862 -1.7971 3.29406
Spine1  9.82664 -1.77094 2.67611
HEad  3.8909 -2.18107 3.93766
LeftShoulder1  9.78199 -15.4597 -44.9477
LeftArm  -8.48872 -11.3732 -21.1485
LeftForeArm  23.5646 -9.74709 -7.03866
LeftHand  -0.25398 0.0180481 5.50724
RightShoulder  6.26603 12.6413 32.8565
RightArm  18.606 22.5496 42.6646
RightForeArm  -8.04213 25.6085 5.87049
RightHand  -1.51057 4.20431 -18.4691
LeftUpLeg  -22.2495 10.9398 13.293
LeftLeg  8.03988 6.5684 -0.0218837
LeftFoot  -1.84689 0.661468 -7.64039
LeftToes  1.06248e-005 4.65855e-005 -8.18498e-006
76
root  -52.3597 37.9216 15.2387 -178.298 -27.0372 176.709
RightUpLeg  -20.0228 14.0763 -10.6132
RightLeg  48.597 1.90003 1.98179
RightFoot  -20.4252 0.183137 4.19862
RightToes  0.000482159 0.542163 -0.142577
Spine  34.1434 -1.66168 3.30128
Spine1  9.63253 -1.22791 1.49412
HEad  0.953116 -0.940395 4.09585
LeftShoulder1  9.68267 -15.8631 -43.493
LeftArm  -10.4776 -14.4283 -21.737
LeftForeArm  23.949 -10.2267 -6.49747
LeftHand  -0.25398 0.0180481 5.50724
RightShoulder  6.35592 13.0856 32.3581
RightArm  19.2646 28.0562 44.1829
RightForeArm  -9.4875 21.9684 5.6846
RightHand  -1.55905 4.39104 -18.6954
LeftUpLeg  -25.3809 14.1644 11.7594
LeftLeg  13.7226 1.28102 -0.0921889
LeftFoot  4.50352 1.47881 -10.7739
LeftToes  1.06248e-005 4.65855e-005 -8.18498e-006
77
root  -53.9267 37.6456 15.9311 -177.091 -21.7979 176.801
RightUpLeg  -26.4727 10.0395 -13.6428
RightLeg  53.9772 2.19818 2.7958
RightFoot  -14.4191 0.0829161 6.31985
RightToes  0.000482159 0.542163 -0.142577
Spine  37.8838 -0.790933 2.70538
Spine1  9.4502 -0.399573 1.34673
HEad  -3.10014 -0.592698 3.82785
LeftShoulder1  9.80316 -16.4986 -42.5765
LeftArm  -13.0843 -19.4034 -22.1203
LeftForeArm  23.9976 -9.48664 -6.1245
LeftHand  -0.25398 0.0180481 5.50724
RightShoulder  6.16486 13.349 30.6069
RightArm  13.6801 33.7407 45.4085
RightForeArm  -5.18328 17.5938 7.06753
RightHand  -1.54768 4.50672 -18.3593
LeftUpLeg  -29.1664 19.0603 9.20064
LeftLeg  19.4049 -2.44321 -0.530367
LeftFoot  8.77077 2.17834 -12.6118
LeftToes  1.06248e-005 4.65855e-005 -8.18498e-006
78
root  -55.3594 37.5664 16.6607 -175.421 -17.5374 176.264
RightUpLeg  -32.5214 3.19136 -15.1293
RightLeg  57.4881 0.40762 0.224357
RightFoot  -7.57772 -0.220586 5.38593
RightToes  0.000482159 0.542163 -0.142577
Spine  42.1132 -0.192865 2.05083
Spine1  9.61906 0.486578 0.0431487
HEad  -7.93901 -1.24017 3.76827
LeftShoulder1  9.92466 -17.4401 -41.0615
LeftArm  -15.6542 -26.0007 -22.6625
LeftForeArm  23.2767 -7.34739 -5.78459
LeftHand  -0.25398 0.0180481 5.50724
RightShoulder  5.89583 13.5385 28.5847
RightArm  4.54728 38.9341 45.9432
RightForeArm  -1.02175 13.4173 8.33108
RightHand  -1.64635 4.91941 -18.7352
LeftUpLeg  -33.0445 23.9707 5.46978
LeftLeg  24.0207 -3.3034 -1.26995
LeftFoot  8.31509 1.8511 -10.8985
LeftToes  1.06248e-005 4.65855e-005 -8.18498e-006
79
root  -56.6924 37.638 17.377 -173.3 -15.079 175.894
RightUpLeg  -37.2808 -6.19684 -13.7644
RightLeg  57.4607 -2.31278 -4.316
RightFoot  -4.3968 -0.24476 3.44053
RightToes  0.000482159 0.542163 -0.142577
Spine  46.5892 -1.37081 3.02613
Spine1  9.11321 0.919761 -3.90697
HEad  -12.9586 -2.1863 4.82029
LeftShoulder1  9.46164 -18.3959 -37.0526
LeftArm  -17.7395 -32.9053 -24.274
LeftForeArm  22.6752 -4.71918 -5.13189
LeftHand  -0.25398 0.0180481 5.50724
RightShoulder  5.95442 13.9364 28.1125
RightArm  -3.46596 43.4495 45.2091
RightForeArm  -1.38119 10.1319 8.54925
RightHand  -1.82261 5.43326 -19.7476
LeftUpLeg  -37.2339 27.8363 0.488866
LeftLeg  26.5822 -3.80257 -1.72506
LeftFoot  6.07572 1.08678 -7.34468
LeftToes  1.06248e-005 4.65855e-005 -8.18498e-006
80
root  -57.9774 37.7889 17.9874 -170.416 -13.6769 176.4
RightUpLeg  -41.9311 -16.8107 -8.38515
RightLeg  53.6253 -4.7716 -7.3224
RightFoot  -4.64951 -0.215259 3.15278
RightToes  0.000482159 0.542163 -0.142577
Spine  50.9232 -3.74182 5.43846
Spine1  7.3557 0.955238 -8.81307
HEad  -17.6642 -3.15843 6.88692
LeftShoulder1  8.50857 -19.1252 -31.5035
LeftArm  -19.2324 -39.3395 -26.304
LeftForeArm  22.6001 -2.62589 -4.53276
LeftHand  -0.25398 0.0180481 5.50724
RightShoulder  6.31165 14.5407 28.9663
RightArm  -9.34242 47.6016 42.8811
RightForeArm  -3.42384 7.38201 8.10361
RightHand  -1.81674 5.40197 -19.7261
LeftUpLeg  -41.872 29.4584 -3.95144
LeftLeg  27.247 -4.11572 -1.95871
LeftFoot  5.29095 0.694535 -4.98933
LeftToes  1.06248e-005 4.65855e-005 -8.18498e-006
81
root  -59.1428 37.9281 18.4239 -166.685 -12.1277 177.423
RightUpLeg  -47.9759 -26.3132 1.28698
RightLeg  47.4065 -7.18917 -8.61408
RightFoot  -5.19162 -0.217313 3.38909
RightToes  0.000482159 0.542163 -0.142577
Spine  54.5725 -5.7016 7.43134
Spine1  5.01266 1.01394 -13.2876
HEad  -21.8431 -4.00951 9.65793
LeftShoulder1  7.47059 -19.6292 -26.0747
LeftArm  -20.0084 -45.0153 -27.6339
LeftForeArm  21.6282 -1.73904 -4.32684
LeftHand  -0.25398 0.0180481 5.50724
RightShoulder  6.94909 15.5202 30.5252
RightArm  -13.8504 51.6523 38.349
RightForeArm  -4.95752 4.68103 7.43181
RightHand  -1.57164 4.7206 -18.2491
LeftUpLeg  -47.3807 30.3798 -7.89628
LeftLeg  27.5068 -4.36581 -2.1259
LeftFoot  5.42508 0.551613 -3.9673
LeftToes  1.06248e-005 4.65855e-005 -8.18498e-006
82
root  -60.1442 37.9363 18.7062 -162.606 -10.3859 178.107
RightUpLeg  -55.3333 -32.4759 12.5463
RightLeg  41.8866 -10.2383 -9.97975
RightFoot  -5.52334 -0.0552103 0.284317
RightToes  0.000482159 0.542163 -0.142577
Spine  57.2157 -6.82575 8.15584
Spine1  3.42371 1.18757 -17.199
HEad  -25.6412 -4.60445 12.7767
LeftShoulder1  6.5461 -20.261 -21.0807
LeftArm  -21.2411 -49.9188 -27.9632
LeftForeArm  19.8797 -1.93344 -4.17058
LeftHand  -0.25398 0.0180481 5.50724
RightShoulder  7.93234 16.8883 32.8461
RightArm  -19.0611 55.5176 31.1188
RightForeArm  -6.53881 2.09468 7.01097
RightHand  -1.38506 4.24453 -16.9258
LeftUpLeg  -53.584 31.2479 -12.4763
LeftLeg  28.4338 -4.42932 -2.25378
LeftFoot  4.63879 0.287692 -2.23124
LeftToes  1.06248e-005 4.65855e-005 -8.18498e-006
83
root  -61.0375 37.7953 18.926 -158.971 -9.08368 178.057
RightUpLeg  -61.9702 -34.7229 20.0442
RightLeg  39.3518 -12.7785 -11.2869
RightFoot  -6.16305 0.172444 -4.69967
RightToes  0.000482159 0.542163 -0.142577
Spine  60.2671 -7.49843 7.45057
Spine1  1.62953 0.350083 -18.5928
HEad  -28.6445 -4.09309 14.3479
LeftShoulder1  5.86163 -19.8393 -18.6331
LeftArm  -23.3788 -54.3681 -26.0611
LeftForeArm  18.4681 -2.71444 -4.12153
LeftHand  -0.25398 0.0180481 5.50724
RightShoulder  8.77786 19.2268 32.9023
RightArm  -25.1913 58.1755 24.6069
RightForeArm  -8.70807 0.0560806 6.26457
RightHand  -1.38846 4.37945 -16.7343
LeftUpLeg  -59.0867 30.9968 -17.2811
LeftLeg  29.6756 -4.04842 -2.14633
LeftFoot  3.33441 -0.106841 0.668719
LeftToes  1.06248e-005 4.65855e-005 -8.18498e-006
84
root  -61.8956 37.5687 19.1241 -155.979 -8.22333 177.483
RightUpLeg  -66.5219 -34.3772 21.5415
RightLeg  39.3634 -13.2551 -11.665
RightFoot  -6.28796 0.23686 -6.32289
RightToes  0.000482159 0.542163 -0.142577
Spine  64.0753 -7.60773 4.66527
Spine1  -0.491037 -2.51359 -14.5431
HEad  -30.9581 -0.922954 11.9673
LeftShoulder1  5.91546 -16.3844 -23.3253
LeftArm  -27.3486 -59.7662 -16.8437
LeftForeArm  16.3844 -3.65885 -5.20692
LeftHand  -0.25398 0.0180481 5.50724
RightShoulder  9.0044 24.782 25.4191
RightArm  -32.3681 59.0453 23.0067
RightForeArm  -9.21828 -1.96624 3.86578
RightHand  -1.41011 4.71387 -16.4509
LeftUpLeg  -63.3327 29.5909 -21.3882
LeftLeg  31.0126 -3.40273 -1.85731
LeftFoot  2.41306 -0.417708 3.3335
LeftToes  1.06248e-005 4.65855e-005 -8.18498e-006
85
root  -62.7261 37.2955 19.2593 -153.219 -7.19644 177.067
RightUpLeg  -70.128 -33.1114 20.7353
RightLeg  40.0356 -12.0349 -10.9049
RightFoot  -5.50199 0.19651 -4.60344
RightToes  0.000482159 0.542163 -0.142577
Spine  65.6649 -7.09746 5.50012
Spine1  0.0822967 -0.948702 -15.0574
HEad  -34.9896 -4.55582 12.9295
LeftShoulder1  6.39099 -20.294 -20.6435
LeftArm  -33.9559 -64.8872 -11.8642
LeftForeArm  15.8061 -2.23548 -4.44765
LeftHand  -0.25398 0.0180481 5.50724
RightShoulder  8.37034 23.2266 25.1171
RightArm  -41.1444 60.9529 11.6591
RightForeArm  -11.5919 -3.16936 3.25781
RightHand  -1.33084 5.00036 -15.1599
LeftUpLeg  -67.5467 28.3953 -25.1013
LeftLeg  32.9965 -3.03279 -1.76576
LeftFoot  1.22065 -0.568089 5.0946
LeftToes  1.06248e-005 4.65855e-005 -8.18498e-006
